<?xml version="1.0" standalone="no"?>
<!DOCTYPE svg PUBLIC "-//W3C//DTD SVG 20010904//EN"
 "http://www.w3.org/TR/2001/REC-SVG-20010904/DTD/svg10.dtd">
<svg version="1.0" xmlns="http://www.w3.org/2000/svg"
 width="100" height="100" viewBox="0 0 100 100"
 preserveAspectRatio="xMidYMid meet">
<g 
fill="#fff" stroke="none">
<path d="M6390 11592 c-1088 -1313 -2050 -2735 -2666 -3936 -712 -1390 -997
-2524 -853 -3386 95 -567 371 -1227 723 -1728 200 -285 489 -601 727 -795 540
-440 1127 -693 1799 -773 198 -24 582 -24 780 0 903 108 1697 550 2308 1284
454 546 786 1238 926 1932 67 333 65 760 -5 1170 -226 1313 -1095 3029 -2524
4980 -415 565 -1055 1371 -1095 1377 -8 1 -62 -55 -120 -125z"/>
</g>
</svg>
